<svg xmlns="http://www.w3.org/2000/svg" style="display: none;">
  <symbol id="icon-logo" viewBox="0 0 100 100">
    <rect width="100" height="100" rx="20" fill="#1a365d"/>
    <path d="M35 30L50 45L65 30" stroke="#2563eb" stroke-width="6" stroke-linecap="round" fill="none"/>
    <path d="M35 50L50 65L65 50" stroke="#2563eb" stroke-width="6" stroke-linecap="round" fill="none"/>
    <circle cx="50" cy="40" r="3" fill="#2563eb"/>
    <circle cx="50" cy="60" r="3" fill="#2563eb"/>
  </symbol>
  
  <symbol id="icon-email" viewBox="0 0 24 24">
    <path fill="currentColor" d="M20 4H4c-1.1 0-1.99.9-1.99 2L2 18c0 1.1.9 2 2 2h16c1.1 0 2-.9 2-2V6c0-1.1-.9-2-2-2zm-8 7l8-5H4l8 5zm-8 7h16V8l-8 5-8-5v10z"/>
  </symbol>
  
  <symbol id="icon-share" viewBox="0 0 24 24">
    <path fill="currentColor" d="M18 16.08c-.76 0-1.44.3-1.96.77L8.91 12.7c.05-.23.09-.46.09-.7s-.04-.47-.09-.7l7.05-4.11c.54.5 1.25.81 2.04.81 1.66 0 3-1.34 3-3s-1.34-3-3-3-3 1.34-3 3c0 .24.04.47.09.7L8.04 9.81C7.5 9.31 6.79 9 6 9c-1.66 0-3 1.34-3 3s1.34 3 3 3c.79 0 1.5-.31 2.04-.81l7.12 4.16c-.05.21-.08.43-.08.65 0 1.61 1.31 2.92 2.92 2.92 1.61 0 2.92-1.31 2.92-2.92s-1.31-2.92-2.92-2.92z"/>
  </symbol>
  
  <symbol id="icon-download" viewBox="0 0 24 24">
    <path fill="currentColor" d="M19 9h-4V3H9v6H5l7 7 7-7zM5 18v2h14v-2H5z"/>
  </symbol>
  
  <symbol id="icon-rocket" viewBox="0 0 24 24">
    <path fill="currentColor" d="M12 2.5s4.5 2.04 4.5 10.5c0 2.49-1.04 5.57-1.6 7H9.1c-.56-1.43-1.6-4.51-1.6-7C7.5 4.54 12 2.5 12 2.5zm2 8.5c0-1.1-.9-2-2-2s-2 .9-2 2 .9 2 2 2 2-.9 2-2zm-6 7c0 .55.45 1 1 1h6c.55 0 1-.45 1-1v-1H8v1z"/>
  </symbol>
  
  <symbol id="icon-business" viewBox="0 0 24 24">
    <path fill="currentColor" d="M12 7V3H2v18h20V7H12zM6 19H4v-2h2v2zm0-4H4v-2h2v2zm0-4H4V9h2v2zm0-4H4V5h2v2zm4 12H8v-2h2v2zm0-4H8v-2h2v2zm0-4H8V9h2v2zm0-4H8V5h2v2zm10 12h-8v-2h2v-2h-2v-2h2v-2h-2V9h8v10zm-2-8h-2v2h2v-2zm0 4h-2v2h2v-2z"/>
  </symbol>
</svg>